<svg width="254" height="290" viewBox="0 0 254 290" fill="none" xmlns="http://www.w3.org/2000/svg">
<path d="M240.31 119.851C240.31 119.851 264.168 150.966 202.722 191.685C141.274 232.404 55.6077 245.877 38.5606 202.027C21.5134 158.176 37.4295 171.16 102.928 163.654C168.425 156.149 212.035 88.0447 222.572 95.4674C233.105 102.892 240.31 119.851 240.31 119.851Z" fill="#F9A332"/>
<path d="M91.459 223.466C72.9677 223.466 57.2856 219.103 47.2783 209.453C51.7057 207.363 55.211 205.24 58.1398 203.469C61.4779 201.448 64.1819 199.812 65.8612 199.812C66.0409 199.812 66.2093 199.83 66.3651 199.87C67.2182 200.084 68.1166 201.009 69.1111 202.695C71.9891 207.571 75.9181 210.236 80.2156 210.236C80.3884 210.236 80.5613 210.232 80.7354 210.224C85.2847 210.003 89.4804 206.699 91.9595 201.386C93.4297 198.236 95.3495 196.321 97.8276 195.535C98.7462 195.243 99.7713 195.098 100.898 195.098C105.035 195.098 110.56 197.059 117.381 200.96C117.408 200.975 117.431 200.988 117.456 201.003C120.292 202.688 123.473 203.709 127.232 203.806C127.539 203.816 127.843 203.819 128.142 203.819C138.537 203.819 143.442 199.065 146.405 196.193C147.177 195.445 148.344 194.314 148.737 194.283C148.742 194.283 149.087 194.334 149.869 195.116C146.38 199.203 139.217 207.124 128.272 207.124C123.576 207.124 118.184 205.664 112.089 201.819C109.411 200.129 106.67 199.424 104.193 199.424C97.118 199.424 92.1969 205.183 97.0864 210.22C99.0966 212.292 103.135 213.012 107.778 213.012C115.283 213.012 124.362 211.13 128.991 210.033C138.282 207.764 147.752 204.749 157.164 201.069C158.886 201.835 160.647 202.239 162.31 202.239C163.956 202.239 165.506 201.843 166.827 201.007C167.955 200.296 169.754 198.686 170.216 195.517C181.427 190.361 192.399 184.292 202.721 177.452C226.698 161.56 237.685 147.136 242.17 135.448C242.193 137.289 242.053 139.29 241.68 141.443C241.076 144.948 239.904 148.498 238.185 152.076C232.21 162.079 221.413 173.576 202.721 185.963C167.775 209.121 124.994 223.466 91.459 223.466ZM168.26 185.69C168.151 185.444 168.036 185.194 167.917 184.94C167.53 184.12 167.179 183.255 166.865 182.35C166.919 182.35 166.97 182.35 167.024 182.35C178.973 182.35 183.52 176.44 189.029 169.282C190.977 166.751 192.989 164.134 195.572 161.377C200.23 156.403 207.362 156.1 214.26 155.808C218.796 155.616 223.145 155.43 226.452 153.796C218.414 161.778 207.832 153.789 201.501 163.814C194.3 175.215 187.898 183.217 174.296 184.817C172.086 185.077 170.084 185.365 168.26 185.69ZM231.988 144.643C232.021 144.028 232.021 143.384 231.992 142.71C231.752 137.283 231.722 133.578 232.312 131.888C232.63 130.974 233.042 130.734 235.221 129.784C236.654 129.159 238.491 128.358 240.783 126.927C241.113 127.933 241.419 129.071 241.661 130.334C232.674 132.493 236.177 134.687 231.988 144.643Z" fill="#BF6700"/>
<path d="M220.652 97.6104C220.031 97.6104 218.487 97.9669 215.114 100.335C211.184 103.095 206.071 107.653 200.148 112.928C178.456 132.26 145.672 161.475 103.235 166.338C87.7178 168.117 75.0155 168.748 64.8084 169.257C49.0516 170.042 38.642 170.56 35.9076 174.779C33.2904 178.814 36.0826 188.199 41.0784 201.049C45.1836 211.61 53.7152 219.012 66.4354 223.05C99.3715 233.505 156.058 219.369 201.229 189.435C224.99 173.688 238.978 157.093 241.681 141.442C243.799 129.179 238.389 121.793 238.159 121.485C238.026 121.31 237.909 121.109 237.823 120.909C237.729 120.687 230.768 104.549 221.015 97.6765C221.011 97.6744 220.913 97.6104 220.652 97.6104ZM91.5069 231.918C81.6 231.92 72.6233 230.681 64.8016 228.197C50.446 223.641 40.7709 215.165 36.0442 203.006C29.9964 187.452 27.4618 177.878 31.3751 171.841C35.6136 165.303 45.8877 164.791 64.5394 163.863C74.6698 163.358 87.2761 162.731 102.62 160.973C143.357 156.305 175.373 127.775 196.558 108.898C210.725 96.2718 218.526 89.3162 224.126 93.2615C234.525 100.591 241.63 116.137 242.672 118.513C243.867 120.232 249.26 128.874 247.038 142.153C244.119 159.618 229.709 177.04 204.213 193.937C182.032 208.636 156.024 220.211 130.981 226.527C116.746 230.117 103.451 231.918 91.5069 231.918Z" fill="#6D184E"/>
<path d="M27.2767 174.415C27.2767 174.415 11.6748 172.014 10.2744 182.615C8.87446 193.217 26.0766 189.016 25.8767 197.218C25.6766 205.418 25.4765 216.22 43.0797 208.82C60.6817 201.418 65.4821 192.039 71.0836 201.53C76.6838 211.02 85.6854 209.42 89.8855 200.418C94.0868 191.417 102.344 189.725 118.519 198.973C127.174 203.92 131.87 196.871 137.745 189.821C142.849 183.696 148.843 177.572 159.097 179.315C181.149 183.066 182.1 172.414 193.9 159.813C205.703 147.211 230.506 161.013 229.707 142.809C228.907 124.607 230.806 131.459 241.757 123.507C252.71 115.556 252.559 96.953 231.106 98.6046C209.653 100.254 156.296 177.215 27.2767 174.415Z" fill="#48C75A"/>
<path d="M229.89 127.58C230.699 124.218 234.563 122.171 242.582 115.932C243.998 114.828 245.415 112.998 246.606 111.159C246.313 114.976 244.036 119.025 240.413 121.656C237.407 123.836 235.182 124.807 233.392 125.586C231.917 126.228 230.771 126.832 229.89 127.58Z" fill="#B6E9BD"/>
<path d="M173.65 176.909C180.715 173.079 184.079 164.973 191.914 156.007C201.786 144.706 220.167 151.929 227.288 145.612C227.078 146.86 226.648 147.832 225.986 148.552C223.909 150.815 219.127 151.019 214.065 151.233C206.612 151.549 198.166 151.909 192.23 158.247C189.497 161.165 187.321 163.994 185.401 166.489C181.495 171.565 178.633 175.287 173.65 176.909Z" fill="#B6E9BD"/>
<path d="M33.3979 209.005C32.1561 209.005 31.1617 208.759 30.4362 208.263C27.9389 206.56 28.0643 201.412 28.165 197.273C28.3005 191.741 23.037 190.104 19.195 188.909C14.115 187.329 12.091 186.345 12.5442 182.916C12.7865 181.082 13.5725 179.688 14.9474 178.653C16.7654 177.286 19.4062 176.721 21.811 176.54C28.6272 187.127 39.0435 193.012 51.2146 193.012C52.7573 193.012 54.3302 192.917 55.9247 192.726C71.0032 190.664 86.1678 187.446 101.304 183.104C101.894 183.909 102.474 184.707 103.046 185.495C104.581 187.61 106.071 189.662 107.576 191.579C105.143 190.872 102.916 190.52 100.883 190.52C99.285 190.52 97.8058 190.737 96.4431 191.171C92.7287 192.35 89.8246 195.135 87.8122 199.45C86.0639 203.196 83.336 205.513 80.5157 205.65C80.4354 205.653 80.3564 205.655 80.2761 205.655C77.6353 205.655 75.0826 203.801 73.0554 200.366C71.3841 197.534 69.6133 195.965 67.4834 195.429C66.9444 195.294 66.4054 195.23 65.8619 195.23C62.9113 195.23 59.8141 197.103 55.7696 199.55C52.2747 201.666 47.9254 204.299 42.1917 206.709C38.5632 208.234 35.5936 209.005 33.3979 209.005ZM167.237 177.809C166.733 177.809 166.212 177.797 165.672 177.771C164.62 172.107 164.801 165.419 166.465 158.431C186.143 149.33 204.503 138.649 221.284 126.525C229.43 120.434 234.184 112.186 235.265 102.897C235.402 102.868 235.536 102.841 235.672 102.815C236.846 109.769 235.664 118.846 226.305 127.409C207.502 144.61 186.299 149.211 176.697 159.013C170.912 164.919 170.284 172.492 170.698 177.581C169.64 177.731 168.493 177.809 167.237 177.809Z" fill="#539256"/>
<path d="M23.7302 176.469C20.929 176.469 17.2678 176.908 14.9468 178.654C13.5721 179.689 12.7859 181.082 12.5435 182.916C12.0905 186.346 14.1143 187.33 19.1945 188.909C23.0364 190.104 28.2999 191.741 28.1642 197.274C28.0637 201.412 27.9382 206.56 30.4356 208.263C32.4457 209.635 36.5105 209.097 42.1909 206.709C47.9246 204.299 52.2738 201.666 55.7689 199.551C60.5579 196.652 64.0203 194.559 67.4826 195.43C69.6127 195.965 71.3832 197.535 73.0546 200.367C75.1428 203.905 77.7892 205.766 80.5148 205.651C83.3353 205.514 86.0632 203.196 87.8113 199.45C89.8238 195.136 92.7278 192.35 96.4422 191.172C102.083 189.378 109.677 191.282 119.654 196.986C125.668 200.423 128.916 196.964 134.608 190.028C140.123 183.304 146.986 174.934 159.48 177.058C175.21 179.736 178.829 175.03 185.401 166.489C187.32 163.994 189.497 161.166 192.229 158.248C198.165 151.909 206.613 151.55 214.065 151.233C219.127 151.018 223.909 150.815 225.983 148.553C227.064 147.375 227.534 145.529 227.418 142.911C226.855 130.086 227.523 128.143 233.392 125.587C235.18 124.806 237.408 123.836 240.413 121.655C245.371 118.053 247.81 111.801 246.085 107.11C244.388 102.492 239.131 100.279 231.281 100.887C226.024 101.291 217.427 107.66 206.542 115.724C191.069 127.188 169.876 142.889 140.677 155.536C106.21 170.467 68.0328 177.592 27.2265 176.703C27.1281 176.701 27.0297 176.692 26.9314 176.679C26.2274 176.571 25.0783 176.469 23.7302 176.469ZM33.3747 213.573C31.179 213.573 29.3475 213.063 27.8558 212.045C23.3008 208.939 23.46 202.41 23.5879 197.162C23.6308 195.387 22.1888 194.635 17.8339 193.282C13.5203 191.94 7.0013 189.912 8.00487 182.316C8.41122 179.239 9.82567 176.772 12.2081 174.986C17.565 170.969 26.1394 171.948 27.4637 172.129C120.058 174.095 172.484 135.256 203.818 112.047C216.187 102.882 224.359 96.8282 230.929 96.3213C245.032 95.2408 249.232 102.401 250.384 105.529C252.829 112.18 249.767 120.521 243.102 125.359C239.692 127.835 237.108 128.96 235.221 129.784C233.043 130.733 232.631 130.975 232.312 131.889C231.723 133.578 231.753 137.281 231.992 142.71C232.163 146.606 231.302 149.529 229.359 151.648C226.001 155.309 220.296 155.551 214.259 155.807C207.361 156.1 200.229 156.403 195.572 161.377C192.988 164.134 190.976 166.75 189.028 169.282C182.396 177.901 177.157 184.709 158.71 181.573C148.838 179.893 143.403 186.521 138.145 192.931C132.938 199.282 127.033 206.478 117.381 200.96C108.7 195.997 102.122 194.173 97.8276 195.535C95.3494 196.321 93.4296 198.236 91.9595 201.386C89.4802 206.699 85.2846 210.003 80.7352 210.224C76.2356 210.447 72.1053 207.767 69.1108 202.694C68.1165 201.009 67.2182 200.084 66.365 199.869C64.7536 199.466 61.8348 201.231 58.1397 203.468C54.5169 205.661 50.0083 208.39 43.9662 210.93C39.7705 212.694 36.2596 213.573 33.3747 213.573Z" fill="#6D184E"/>
<path d="M194.336 60.7956C191.554 61.9084 189.164 63.6642 187.2 65.9124C175.254 74.1367 149.231 90.6966 116.215 103.745C83.3179 117.08 53.0553 123.05 38.7337 125.339C35.7618 125.069 32.8203 125.448 30.0384 126.561C17.3485 131.641 12.7863 150.064 19.8492 167.707C26.9116 185.351 40.9395 192.219 55.6147 190.457C88.2706 185.993 117.457 176.59 141.329 166.481C165.581 157.327 193.197 143.993 219.912 124.692C231.751 115.841 237.164 101.192 230.102 83.5459C223.04 65.9021 207.026 55.718 194.336 60.7956Z" fill="#DB2839"/>
<path d="M51.1222 188.443C38.0232 188.443 27.5381 180.757 21.9739 166.857C21.5501 165.798 21.1683 164.732 20.8281 163.663C21.7004 163.362 22.5954 163.062 23.5073 162.774C22.8609 165.726 22.7514 168.76 24.3999 171.266C26.0408 173.76 29.0058 175.176 33.4638 175.595C34.1169 175.656 34.7542 175.685 35.3768 175.685C44.6304 175.685 50.5854 169.199 55.0083 164.382C57.717 161.433 60.2751 158.646 62.3735 158.646C62.3895 158.646 62.4053 158.646 62.42 158.646C63.646 158.67 65.098 159.662 66.7366 161.593C72.5424 168.442 80.1361 172.166 88.2314 172.165C88.5952 172.165 88.9612 172.159 89.3275 172.143C90.306 172.102 91.2744 172.006 92.2304 171.857C94.4745 174.281 96.4905 176.744 98.3663 179.18C84.0028 183.22 69.6248 186.232 55.3416 188.185C53.9076 188.357 52.5008 188.443 51.1222 188.443ZM61.6425 164.303C61.2866 164.303 60.9724 164.492 60.681 164.914C59.5249 166.59 57.0558 168.933 54.4568 171.181C52.7461 172.662 53.2567 175.403 55.362 176.23C59.1259 177.709 63.1385 178.423 67.2552 178.423C68.714 178.423 70.1864 178.334 71.6645 178.157C71.7095 178.15 71.7548 178.144 71.8 178.137C74.6565 177.745 75.3256 173.92 72.7864 172.555C66.315 169.076 63.4403 164.303 61.6425 164.303ZM168.197 152.56C170.944 144.789 175.548 136.905 182.341 129.865C183.385 129.952 184.446 130.004 185.511 130.004C186.438 130.004 187.367 129.964 188.286 129.871C185.902 132.606 183.822 135.268 182.07 137.668C180.549 139.753 182.208 142.387 184.422 142.387C184.84 142.387 185.28 142.292 185.723 142.08C192.061 139.048 198.501 135.731 204.988 132.105C193.375 139.585 181.083 146.419 168.197 152.56ZM203.153 116.102C203.289 115.628 203.406 115.161 203.507 114.706C214.334 109.028 223.364 105.857 230.533 104C230.436 104.566 230.323 105.125 230.194 105.681C219.984 106.299 210.874 110.535 203.153 116.102Z" fill="#A92142"/>
<path d="M36.9043 127.544C34.8037 127.544 32.7866 127.926 30.8892 128.686C25.4539 130.863 21.5013 135.936 19.7588 142.973C17.9484 150.283 18.7349 158.764 21.9746 166.856C28.1241 182.218 40.2841 189.99 55.3425 188.185C83.6197 184.318 112.262 176.304 140.437 164.373C140.464 164.361 140.491 164.349 140.52 164.339C169.147 153.535 195.407 139.57 218.572 122.837C230.687 113.778 234.125 99.759 227.976 84.3968C221.395 67.9526 206.684 58.3171 195.187 62.9224L194.337 60.7959L195.187 62.9224C192.806 63.8737 190.7 65.3867 188.924 67.4179C188.797 67.5609 188.656 67.6873 188.499 67.7972C175.966 76.4255 150.019 92.8468 117.058 105.873C84.2299 119.181 54.1198 125.198 39.0955 127.6C38.9067 127.629 38.7145 127.636 38.5259 127.619C37.98 127.569 37.4399 127.544 36.9043 127.544ZM51.2147 193.012C36.2624 193.013 23.9579 184.13 17.7237 168.558C14.1315 159.582 13.2757 150.105 15.3145 141.872C17.4207 133.366 22.3475 127.173 29.1876 124.435C32.1582 123.246 35.3403 122.777 38.6478 123.034C53.5708 120.634 83.1294 114.686 115.356 101.622C147.712 88.8363 173.213 72.7445 185.672 64.1846C187.887 61.7141 190.515 59.8612 193.485 58.6694C207.326 53.1314 224.707 63.9069 232.227 82.6951C239.104 99.875 235.012 116.259 221.283 126.527C197.774 143.51 171.17 157.661 142.178 168.606C113.646 180.686 84.6266 188.801 55.9244 192.726C54.33 192.917 52.7571 193.012 51.2147 193.012Z" fill="#6D184E"/>
<path d="M24.0765 145.811C24.0765 145.811 8.67421 152.012 4.87391 162.613C2.61606 168.911 9.11057 165.398 18.9904 161.884C25.7432 159.483 34.0769 157.082 42.2785 157.813C49.767 158.48 52.6384 156.234 54.7232 153.989C58.2623 150.177 59.5335 146.362 77.2837 156.812C105.488 173.415 108.089 201.019 127.291 201.518C134.981 201.719 139.399 199.24 142.396 196.762C146.88 193.051 148.178 189.341 152.494 194.618C159.695 203.419 173.346 201.818 165.845 185.916C158.344 170.013 163.096 135.009 197.101 115.606C231.105 96.2039 249.307 100.404 250.908 97.6046C252.509 94.8032 244.907 80.4002 220.704 80.0016C196.5 79.6008 135.692 141.411 24.0765 145.811Z" fill="#FCAF15"/>
<path d="M128.101 199.24C127.854 199.24 127.606 199.236 127.351 199.23C118.509 198.999 113.577 192.208 106.751 182.805C103.982 178.993 100.92 174.776 97.2021 170.551C101.995 168.756 106.223 165.522 109.351 161.143C112.31 157.002 114.872 155.419 118.038 155.419C121.106 155.419 124.741 156.907 129.848 159.001C133.075 160.321 136.732 161.819 140.991 163.192C143.764 164.084 146.484 164.523 149.083 164.523C153.702 164.523 157.935 163.134 161.382 160.43C160.914 161.31 160.497 162.197 160.126 163.084C155.983 165.303 151.911 166.127 147.994 166.127C142.348 166.127 137.029 164.414 132.307 162.701C127.583 160.986 123.458 159.273 120.194 159.273C118.376 159.273 116.827 159.804 115.59 161.163C111.178 166.007 106.824 170.844 104.165 172.336C112.065 183.089 116.889 192.134 127.769 192.416C128.035 192.423 128.295 192.427 128.553 192.427C135.897 192.427 140.06 189.664 142.867 186.902C145.673 184.138 147.121 181.376 149.033 181.376C149.994 181.376 151.07 182.072 152.494 183.812C155.062 186.951 158.45 188.764 161.406 189.077C162.717 193.003 162.495 195.805 161.364 197.579C159.13 197.246 156.405 195.781 154.267 193.168C153.006 191.627 151.269 189.842 149.001 189.712C148.914 189.707 148.826 189.704 148.74 189.704C146.531 189.704 144.92 191.257 143.222 192.904C140.444 195.597 136.665 199.24 128.101 199.24ZM6.92285 163.695C6.95365 163.601 6.98861 163.496 7.02887 163.384C8.41503 159.519 11.6172 156.248 14.9362 153.727C17.0176 153.683 19.1737 153.52 21.3083 153.358C22.6292 153.258 23.8767 153.162 25.1006 153.096C25.2214 153.09 25.3299 153.087 25.4271 153.087C25.7412 153.087 25.9401 153.117 26.0532 153.144C26.165 153.927 25.5446 155.953 25.0339 157.539C20.8404 158.707 16.9646 160.167 13.6265 161.424C11.2845 162.306 8.49523 163.357 6.92285 163.695Z" fill="#D18126"/>
<path d="M42.5576 157.832C54.8143 158.819 54.4495 151.862 59.0524 150.338C50.3386 148.384 52.6624 156.833 42.5576 157.832Z" fill="#F8CE36"/>
<path d="M4.64355 165.519C6.5896 168.527 21.3939 158.618 37.0528 157.742C24.2426 156.963 11.2732 163.519 4.64355 165.519Z" fill="#F8CE36"/>
<path d="M162.309 189.127C162.013 189.127 161.711 189.111 161.404 189.079C161.076 188.095 160.651 187.042 160.12 185.916C157.498 180.357 156.551 171.674 160.126 163.085C160.435 162.919 160.745 162.746 161.054 162.565C159.782 171.613 160.69 180.351 163.776 186.893C164.078 187.533 164.346 188.155 164.577 188.756C163.887 189.004 163.12 189.127 162.309 189.127Z" fill="#FED78A"/>
<path d="M162.319 197.653C162.014 197.653 161.693 197.629 161.363 197.58C162.493 195.807 162.716 193.003 161.404 189.078C161.71 189.111 162.012 189.129 162.308 189.129C163.119 189.129 163.886 189.005 164.577 188.755C166.181 192.896 166.135 196.029 164.383 197.138C163.837 197.481 163.128 197.653 162.319 197.653ZM160.125 163.084C160.494 162.198 160.912 161.311 161.38 160.43C161.385 160.425 161.389 160.422 161.394 160.419C161.268 161.136 161.154 161.851 161.053 162.566C160.744 162.746 160.434 162.92 160.125 163.084Z" fill="#E8C093"/>
<path d="M169.264 139.348C169.038 137.186 168.58 134.969 167.882 132.728C166.86 129.445 167.453 128.709 167.48 128.678C167.747 128.371 168.458 128.254 169.399 128.254C171.199 128.254 173.836 128.678 175.811 128.996C176.095 129.042 176.384 129.087 176.68 129.135C173.672 132.551 171.237 136.005 169.264 139.348Z" fill="#D18126"/>
<path d="M60.9143 147.771C64.4761 147.771 69.6888 149.685 78.4451 154.84C92.4154 163.063 100.364 174.01 106.75 182.806C113.577 192.208 118.508 198.999 127.35 199.231C136.447 199.449 140.363 195.675 143.221 192.904C144.985 191.193 146.657 189.583 149.001 189.712C151.268 189.843 153.006 191.628 154.266 193.168C157.559 197.192 162.242 198.489 164.383 197.137C166.39 195.868 166.158 191.943 163.775 186.893C159.417 177.651 159.404 164.026 163.742 151.334C167.488 140.38 176.119 124.942 195.965 113.617C220.457 99.6443 237.049 97.6915 245.023 96.7541C246.402 96.5917 247.926 96.412 248.764 96.2215C248.593 95.44 247.989 93.8747 246.259 91.87C243.849 89.0772 236.532 82.5521 220.665 82.2902C213.302 82.1473 201.659 88.6204 185.53 97.553C151.374 116.461 99.7965 145.019 24.5861 148.081C22.3621 149.051 10.135 154.72 7.02849 163.385C6.98822 163.497 6.95315 163.601 6.92262 163.696C8.49479 163.358 11.2841 162.307 13.6263 161.425C21.2932 158.536 31.7977 154.585 42.4819 155.532C49.7376 156.181 51.6867 153.979 53.749 151.65C55.7254 149.417 57.6113 147.771 60.9143 147.771ZM128.142 203.819C127.843 203.819 127.538 203.815 127.231 203.806C116.131 203.518 110.067 195.166 103.045 185.496C96.5883 176.604 89.2706 166.525 76.123 158.785C68.9711 154.576 64.1054 152.467 61.2488 152.34C59.4023 152.27 58.7063 152.956 57.1763 154.684C54.8384 157.326 51.6337 160.94 42.0762 160.092C32.4292 159.231 22.4943 162.976 15.2399 165.708C8.8479 168.116 5.32598 169.444 3.17966 167.332C1.38385 165.565 2.38838 162.761 2.71875 161.84C6.81892 150.403 22.5543 143.956 23.2209 143.688C23.4651 143.59 23.7238 143.534 23.986 143.523C98.3354 140.592 149.473 112.281 183.311 93.5457C200.063 84.2732 212.168 77.5771 220.741 77.7135C237.911 77.9971 248.097 85.2431 251.903 91.9306C252.812 93.5305 254.152 96.5419 252.896 98.7393C251.855 100.56 249.751 100.807 245.557 101.3C237.883 102.203 221.916 104.082 198.236 117.596C166.736 135.567 160.315 168.823 167.916 184.94C172.961 195.635 168.836 199.739 166.827 201.007C162.37 203.824 155.295 201.655 150.722 196.067C149.333 194.37 148.744 194.284 148.737 194.283C148.345 194.314 147.178 195.444 146.408 196.192C143.442 199.065 138.538 203.819 128.142 203.819Z" fill="#6D184E"/>
<path d="M145.069 175.34C145.069 175.34 138.088 188.322 127.77 186.74C119.941 185.54 133.022 187.067 136.42 177.59C140.344 166.637 147.09 172.339 145.069 175.34Z" fill="#F8CE36"/>
<path d="M33.6776 122.307C33.6776 122.307 6.07351 123.808 2.77303 139.11C-0.527241 154.412 13.8747 151.412 24.9766 150.812C36.0778 150.211 14.4744 171.514 33.6776 173.315C41.7052 174.067 47.0579 169.472 51.4253 164.876C57.5047 158.479 61.6723 152.081 68.4827 160.113C80.1838 173.914 98.4864 172.415 107.488 159.813C116.49 147.212 123.99 155.313 141.693 161.013C159.396 166.714 171.398 151.712 165.697 133.409C162.865 124.322 168.984 125.59 176.927 126.856C184.985 128.14 194.919 129.425 199.3 119.908C208 101.004 189.399 97.7045 211.602 93.2042C233.805 88.7019 243.406 87.2032 239.807 75.052C236.207 62.8988 227.804 53.8982 199.6 65.9003C171.398 77.9004 145.893 130.409 33.6776 122.307Z" fill="#48C75A"/>
<path d="M29.2447 159.398C30.4346 155.729 31.4458 152.562 29.6966 150.29C28.7882 149.107 27.345 148.511 25.4026 148.511C25.2241 148.511 25.041 148.515 24.8534 148.525C23.5799 148.593 22.2498 148.694 20.9628 148.793C18.6429 148.968 16.2033 149.153 13.9422 149.153C13.6813 149.153 13.4222 149.151 13.1665 149.147C14.7106 143.627 17.5819 138.242 12.4513 138.242C12.3096 138.242 12.1618 138.244 12.0076 138.254C9.82388 138.371 7.51321 138.58 5.23438 138.727C6.4152 134.787 9.61859 131.934 13.4753 129.867C13.9166 132.117 14.4281 134.341 15.0077 136.539C24.1743 141.179 34.0584 144.336 44.4658 146.103C40.3028 149.677 35.967 156.447 29.2447 159.398ZM75.2978 157.317C72.7113 157.317 70.0907 156.888 67.528 156.003C66.1594 154.956 64.7866 154.339 63.3864 154.138C60.5773 152.56 57.9072 150.376 55.5137 147.554C55.4811 147.515 55.4482 147.477 55.4154 147.439C58.6822 147.687 61.992 147.812 65.3358 147.812C75.5464 147.812 86.0906 146.665 96.8187 144.445C96.0594 145.237 95.2944 146.17 94.5191 147.256C89.8657 153.771 82.7264 157.317 75.2978 157.317ZM136.111 149.681C133.796 149.681 131.322 149.29 128.725 148.454C120.578 145.831 114.59 142.698 109.624 141.31C117.673 139.042 125.782 136.197 133.893 132.808C133.925 132.794 133.959 132.78 133.994 132.766C134.002 132.762 134.012 132.758 134.022 132.754C134.048 132.744 134.068 132.736 134.094 132.723C134.105 132.719 134.115 132.715 134.127 132.711C134.151 132.701 134.177 132.689 134.201 132.679C134.209 132.675 134.217 132.673 134.225 132.669C134.258 132.655 134.292 132.641 134.324 132.629L134.326 132.627C134.362 132.613 134.399 132.597 134.433 132.582C134.435 132.58 134.437 132.58 134.439 132.58C134.471 132.566 134.501 132.552 134.536 132.538C134.54 132.536 134.548 132.534 134.554 132.53C134.582 132.518 134.612 132.506 134.642 132.494C134.646 132.492 134.653 132.49 134.657 132.488C134.689 132.474 134.723 132.46 134.757 132.445L134.759 132.443C134.832 132.413 134.9 132.383 134.973 132.353C134.975 132.353 134.979 132.351 134.981 132.351C135.013 132.337 135.045 132.323 135.078 132.308C135.082 132.306 135.084 132.306 135.088 132.304C135.231 132.244 135.372 132.186 135.513 132.123L135.517 132.121C135.839 131.984 136.16 131.847 136.48 131.708L136.486 131.706C136.627 131.646 136.768 131.583 136.911 131.523L136.915 131.519C137.056 131.458 137.195 131.398 137.338 131.337C137.342 131.333 137.342 131.333 137.346 131.331C137.487 131.269 137.624 131.21 137.765 131.148C137.769 131.146 137.771 131.146 137.775 131.144C137.806 131.13 137.84 131.116 137.87 131.102C137.876 131.1 137.876 131.1 137.88 131.098C137.983 131.053 138.09 131.005 138.192 130.961C138.196 130.959 138.2 130.957 138.204 130.953C138.235 130.94 138.265 130.928 138.293 130.914C138.297 130.912 138.305 130.91 138.309 130.906C138.346 130.892 138.374 130.878 138.408 130.864H138.41C138.478 130.832 138.549 130.801 138.617 130.771C138.624 130.767 138.63 130.765 138.636 130.763C138.662 130.751 138.692 130.737 138.718 130.727C138.726 130.723 138.732 130.721 138.738 130.717C138.765 130.705 138.797 130.693 138.823 130.681C138.829 130.677 138.835 130.674 138.843 130.67C138.91 130.642 138.974 130.612 139.041 130.582C139.049 130.578 139.061 130.572 139.071 130.57C139.093 130.56 139.117 130.548 139.141 130.538C139.151 130.531 139.161 130.529 139.172 130.523C139.196 130.513 139.216 130.503 139.24 130.493C139.252 130.487 139.262 130.483 139.272 130.479C139.298 130.467 139.327 130.455 139.353 130.443C139.357 130.441 139.365 130.437 139.371 130.435C139.403 130.421 139.437 130.405 139.47 130.39C139.478 130.386 139.486 130.382 139.494 130.38C139.516 130.368 139.542 130.358 139.566 130.348C139.577 130.342 139.591 130.336 139.603 130.33C139.623 130.322 139.641 130.312 139.661 130.304C139.677 130.298 139.689 130.292 139.705 130.284C139.724 130.276 139.74 130.27 139.758 130.261C139.772 130.253 139.788 130.247 139.802 130.241C139.818 130.233 139.834 130.225 139.85 130.219C139.881 130.205 139.915 130.189 139.945 130.177C139.957 130.171 139.973 130.163 139.985 130.157C140.006 130.149 140.022 130.141 140.042 130.133C140.054 130.126 140.066 130.12 140.078 130.114C140.098 130.106 140.118 130.096 140.137 130.088C140.149 130.084 140.161 130.078 140.171 130.074C140.193 130.062 140.213 130.054 140.235 130.044C140.237 130.044 140.239 130.042 140.241 130.042C140.322 130.004 140.405 129.967 140.487 129.929C140.489 129.929 140.493 129.927 140.497 129.925C140.523 129.913 140.552 129.901 140.578 129.889L140.58 129.887C144.988 127.876 149.277 125.745 153.436 123.498C156.661 137.931 148.802 149.681 136.111 149.681ZM172.66 115.183C171.081 115.183 169.477 115.054 167.897 114.865C175.458 109.883 182.448 104.473 188.766 98.6708C188.56 101.135 187.877 103.996 186.334 107.348C183.463 113.584 178.209 115.183 172.66 115.183ZM206.39 79.0677C209.825 74.3452 212.866 69.4414 215.473 64.3724C215.303 64.0077 215.132 63.6431 214.961 63.2804C217.427 62.7868 219.691 62.539 221.751 62.539C223.699 62.539 225.464 62.7606 227.037 63.2059C229.666 73.2351 222.657 75.6789 206.39 79.0677Z" fill="#539256"/>
<path d="M88.2331 167.588C88.1606 167.588 88.0868 167.587 88.0117 167.587C92.0691 165.807 95.7044 162.913 98.4956 159.006C102.201 153.818 105.668 151.945 109.62 151.945C110.484 151.945 111.373 152.034 112.292 152.2C110.051 153.365 107.853 155.364 105.624 158.483C101.695 163.985 95.685 167.297 89.1368 167.569C88.8351 167.582 88.5347 167.588 88.2331 167.588Z" fill="#A4E3AD"/>
<path d="M150.489 159.91C159.406 155.797 162.832 144.543 160.178 131.026C159.125 125.666 161.458 124.332 165.422 124.332C165.566 124.332 165.711 124.332 165.858 124.336C165.155 124.645 164.538 125.083 164.019 125.681C161.957 128.06 162.741 131.619 163.51 134.089C166.15 142.559 164.737 150.842 159.824 155.707C157.292 158.214 154.105 159.629 150.489 159.91ZM185.682 125.422C185.186 125.422 184.677 125.41 184.16 125.385C188.872 124.686 193.162 122.427 195.789 116.718C205.01 96.6871 185.297 93.1894 208.826 88.4195C224.981 85.1451 234.835 83.3683 238.192 78.4061C238.428 80.4642 237.979 81.5667 237.559 82.2617C235.259 86.0883 226.526 87.8527 213.309 90.5231L211.147 90.9596C203.607 92.4882 200.242 93.9506 198.734 96.3541C197.344 98.5653 197.938 100.89 198.562 103.354C199.489 106.992 200.641 111.52 197.222 118.95C194.924 123.941 190.882 125.422 185.682 125.422Z" fill="#A4E3AD"/>
<path d="M25.4016 148.511C27.3442 148.511 28.7872 149.107 29.6957 150.29C31.4572 152.579 30.4199 155.776 29.2188 159.478C28.1205 162.861 26.8753 166.697 28.2256 168.751C29.0426 169.991 30.9478 170.76 33.8914 171.035C41.9855 171.793 47.1134 166.211 51.6368 161.285C55.0833 157.531 58.3287 153.964 62.5119 154.069C65.1449 154.12 67.6693 155.613 70.2287 158.632C75.3633 164.688 82.079 167.865 89.1369 167.568C95.6853 167.296 101.695 163.985 105.625 158.483C113.558 147.378 121.117 150.477 131.582 154.763C134.734 156.054 138.303 157.516 142.396 158.835C149.34 161.07 155.53 159.96 159.824 155.707C164.736 150.842 166.148 142.559 163.511 134.089C162.741 131.62 161.956 128.061 164.021 125.68C166.467 122.858 171.133 123.607 176.538 124.476C186.107 126.012 193.708 126.582 197.22 118.95C200.642 111.52 199.488 106.991 198.563 103.353C197.936 100.892 197.344 98.5648 198.733 96.3534C200.241 93.9511 203.607 92.4888 211.147 90.9593L213.308 90.5229C226.526 87.8521 235.258 86.0897 237.56 82.2629C238.135 81.3082 238.764 79.592 237.612 75.7022C235.797 69.578 233.11 65.856 229.151 63.9908C223.098 61.1396 213.455 62.4907 200.497 68.0065C193.815 70.8494 187.07 76.2414 179.261 82.4873C167.069 92.2307 151.898 104.362 129.136 113.22C102.523 123.578 71.292 127.3 33.6688 124.602C31.6517 124.742 7.79489 126.685 5.01076 139.592C4.25777 143.086 4.4982 145.57 5.72619 146.978C8.15574 149.766 14.9593 149.25 20.9619 148.794C22.249 148.696 23.579 148.595 24.8525 148.526C25.0401 148.515 25.223 148.511 25.4016 148.511ZM35.3772 175.685C34.7547 175.685 34.1173 175.656 33.4642 175.595C29.0063 175.176 26.0413 173.76 24.4004 171.266C21.8422 167.376 23.5169 162.213 24.8639 158.064C25.3926 156.433 26.1768 154.016 26.0526 153.145C25.9034 153.11 25.6108 153.068 25.0999 153.098C23.8761 153.163 22.6286 153.258 21.3076 153.359C13.8876 153.92 6.21316 154.503 2.27552 149.986C0.0152786 147.395 -0.553929 143.677 0.535594 138.627C4.16251 121.811 32.3556 120.087 33.5534 120.022C33.6495 120.017 33.7466 120.017 33.8427 120.026C117.429 126.056 151.512 98.806 176.401 78.9101C184.472 72.4565 191.444 66.882 198.706 63.7936C213.117 57.661 223.715 56.3707 231.102 59.8493C236.326 62.3124 239.79 66.9344 242.001 74.4014C243.252 78.6227 243.082 81.9649 241.483 84.6232C238.141 90.1767 229.136 91.9957 214.215 95.0107L212.058 95.4471C206.469 96.58 203.292 97.7046 202.61 98.7893C202.281 99.3117 202.545 100.434 203 102.224C203.987 106.101 205.478 111.961 201.381 120.865C196.133 132.26 183.904 130.296 175.812 128.995C172.803 128.515 168.257 127.78 167.48 128.678C167.453 128.708 166.859 129.446 167.881 132.727C171.078 142.989 169.27 152.795 163.045 158.96C157.559 164.397 149.519 165.938 140.99 163.192C136.731 161.82 133.074 160.322 129.847 159.001C119.47 154.749 115.176 152.989 109.35 161.143C104.594 167.803 97.2956 171.812 89.328 172.143C80.8235 172.494 72.8039 168.749 66.7369 161.593C65.0985 159.662 63.6465 158.671 62.4204 158.646C62.4057 158.646 62.39 158.646 62.374 158.646C60.2757 158.646 57.7174 161.433 55.0088 164.382C50.5859 169.199 44.6309 175.685 35.3772 175.685Z" fill="#6D184E"/>
<path d="M133.894 132.809C170.912 117.339 200.424 93.6495 215.471 64.372C198.75 28.2196 162.434 2.98517 120.145 2.30321C61.3937 1.35777 12.5156 48.5542 11.4911 107.304C11.3149 117.427 12.5522 127.229 15.0072 136.539C48.306 153.395 91.1038 150.688 133.894 132.809Z" fill="#F9A332"/>
<path d="M134.707 3.52652H134.704H134.707ZM134.596 3.51106C134.594 3.51106 134.594 3.50886 134.592 3.50886C134.594 3.50886 134.594 3.51106 134.596 3.51106ZM134.539 3.50224C134.536 3.50224 134.539 3.50222 134.536 3.50001L134.539 3.50224ZM134.486 3.49339C134.483 3.49339 134.481 3.4934 134.477 3.49119C134.481 3.4934 134.483 3.49339 134.486 3.49339ZM134.426 3.48455H134.424H134.426ZM134.258 3.46027C134.256 3.45806 134.256 3.45807 134.254 3.45807C134.256 3.45807 134.256 3.45806 134.258 3.46027ZM133.982 3.4183C133.98 3.4183 133.978 3.4183 133.976 3.4183C133.978 3.4183 133.98 3.4183 133.982 3.4183ZM133.934 3.41168C133.927 3.41168 133.923 3.40948 133.918 3.40948C133.923 3.40948 133.927 3.41168 133.934 3.41168ZM133.878 3.40286C133.872 3.40286 133.865 3.40064 133.861 3.40064C133.867 3.40284 133.87 3.40286 133.878 3.40286ZM133.828 3.39621C133.817 3.39401 133.81 3.39402 133.799 3.39182C133.808 3.39402 133.819 3.39401 133.828 3.39621ZM133.772 3.38739C133.761 3.38739 133.752 3.38518 133.741 3.38297C133.752 3.38518 133.759 3.38519 133.772 3.38739ZM133.713 3.37855C133.702 3.37855 133.695 3.37635 133.684 3.37635C133.693 3.37635 133.702 3.37855 133.713 3.37855ZM133.653 3.37193C133.642 3.36972 133.638 3.36972 133.627 3.36751C133.635 3.36751 133.642 3.36972 133.653 3.37193ZM133.598 3.36309C133.587 3.36088 133.576 3.3609 133.565 3.35869C133.576 3.3609 133.585 3.36088 133.598 3.36309ZM133.538 3.35427C133.529 3.35427 133.518 3.35205 133.507 3.34985C133.521 3.35205 133.527 3.35427 133.538 3.35427ZM133.481 3.34543C133.472 3.34543 133.461 3.34323 133.452 3.34323C133.461 3.34323 133.472 3.34543 133.481 3.34543ZM133.421 3.3388C133.41 3.3366 133.404 3.33659 133.395 3.33438C133.404 3.33659 133.412 3.3366 133.421 3.3388ZM133.364 3.32996C133.353 3.32775 133.34 3.32777 133.328 3.32556C133.342 3.32777 133.351 3.32775 133.364 3.32996ZM133.306 3.32334C133.291 3.31892 133.278 3.31894 133.26 3.31452C133.278 3.31894 133.291 3.31892 133.306 3.32334ZM133.249 3.31452C133.229 3.31231 133.214 3.3101 133.194 3.30568C133.211 3.30789 133.231 3.31231 133.249 3.31452ZM133.18 3.30568C133.163 3.30126 133.15 3.30125 133.132 3.29684C133.147 3.29904 133.165 3.30347 133.18 3.30568ZM133.116 3.29684C133.103 3.29463 133.09 3.29242 133.072 3.29021C133.09 3.29242 133.101 3.29463 133.116 3.29684ZM133.055 3.28802C133.044 3.28581 133.028 3.2836 133.015 3.28139C133.03 3.2836 133.041 3.28581 133.055 3.28802ZM132.993 3.27917C132.98 3.27696 132.971 3.27475 132.957 3.27475C132.968 3.27475 132.982 3.27696 132.993 3.27917ZM132.935 3.27035C132.922 3.26814 132.911 3.26814 132.898 3.26593C132.911 3.26814 132.922 3.26814 132.935 3.27035ZM132.878 3.26371C132.865 3.2615 132.849 3.2593 132.838 3.25709C132.849 3.2593 132.867 3.2615 132.878 3.26371ZM132.823 3.25489C132.807 3.25268 132.794 3.25268 132.779 3.25047C132.794 3.25268 132.807 3.25268 132.823 3.25489ZM132.761 3.24827C132.748 3.24606 132.734 3.24383 132.719 3.24163C132.734 3.24383 132.748 3.24606 132.761 3.24827ZM132.703 3.23943C132.688 3.23722 132.675 3.23501 132.662 3.2328C132.675 3.23501 132.688 3.23722 132.703 3.23943ZM132.644 3.23058C132.628 3.23058 132.613 3.22839 132.6 3.22618C132.613 3.22839 132.631 3.23058 132.644 3.23058ZM132.586 3.22396C132.571 3.22175 132.558 3.21955 132.538 3.21734C132.556 3.21955 132.571 3.22175 132.586 3.22396ZM132.527 3.21514C132.507 3.21293 132.491 3.21071 132.472 3.2085C132.489 3.21071 132.509 3.21293 132.527 3.21514ZM132.472 3.2085C132.452 3.20629 132.432 3.20409 132.412 3.20188C132.432 3.20409 132.45 3.20629 132.472 3.2085ZM132.412 3.20188C132.291 3.18421 132.173 3.16876 132.052 3.15551C132.171 3.16876 132.291 3.18421 132.412 3.20188ZM132.048 3.15329C132.028 3.15108 132.012 3.14888 131.992 3.14667C132.008 3.14888 132.03 3.15108 132.048 3.15329ZM131.988 3.14667C131.968 3.14446 131.95 3.14226 131.931 3.14005C131.95 3.14226 131.97 3.14446 131.988 3.14667ZM131.931 3.13785C131.889 3.13343 131.851 3.129 131.811 3.12458C131.851 3.129 131.889 3.13343 131.931 3.13785ZM131.807 3.12458C131.789 3.12017 131.772 3.11797 131.749 3.11576C131.772 3.11797 131.787 3.12017 131.807 3.12458ZM131.749 3.11576C131.73 3.11355 131.712 3.11133 131.692 3.10912C131.71 3.11133 131.732 3.11355 131.749 3.11576ZM131.69 3.10912C128.419 2.70277 125.107 2.44439 121.754 2.3406C125.107 2.44439 128.421 2.70277 131.69 3.10912ZM121.752 2.3406C121.731 2.3406 121.712 2.3406 121.692 2.3406C121.711 2.3406 121.733 2.3406 121.752 2.3406ZM121.69 2.3406C121.669 2.33839 121.651 2.3384 121.631 2.3384C121.65 2.3384 121.67 2.33839 121.69 2.3406ZM121.629 2.3384C121.608 2.33619 121.591 2.33618 121.571 2.33618C121.588 2.33618 121.612 2.33619 121.629 2.3384ZM121.564 2.33618C121.548 2.33618 121.527 2.33398 121.511 2.33398C121.528 2.33398 121.547 2.33618 121.564 2.33618ZM121.502 2.33398C121.486 2.33398 121.465 2.33398 121.45 2.33178C121.466 2.33398 121.485 2.33398 121.502 2.33398ZM121.441 2.33178C121.421 2.33178 121.406 2.33178 121.386 2.33178C121.405 2.33178 121.422 2.33178 121.441 2.33178ZM121.381 2.33178C121.363 2.32957 121.343 2.32955 121.325 2.32955C121.342 2.32955 121.364 2.32957 121.381 2.33178ZM121.319 2.32955C121.196 2.32514 121.075 2.32294 120.952 2.32073C121.075 2.32294 121.196 2.32514 121.319 2.32955ZM120.944 2.31851C120.926 2.31851 120.907 2.31851 120.888 2.31851C120.909 2.31851 120.925 2.31851 120.944 2.31851ZM120.885 2.31851C120.864 2.31851 120.85 2.31631 120.83 2.31631C120.849 2.31631 120.866 2.31851 120.885 2.31851ZM120.817 2.31631C120.801 2.31631 120.784 2.31631 120.769 2.31631C120.786 2.31631 120.8 2.31631 120.817 2.31631ZM120.755 2.31631C120.739 2.3141 120.725 2.31409 120.709 2.31409C120.723 2.31409 120.74 2.3141 120.755 2.31631ZM120.693 2.31409C120.678 2.31409 120.664 2.31409 120.649 2.31409C120.663 2.31409 120.678 2.31409 120.693 2.31409ZM120.631 2.31189C120.617 2.31189 120.604 2.31189 120.591 2.31189C120.606 2.31189 120.616 2.31189 120.631 2.31189ZM120.568 2.31189C120.555 2.31189 120.543 2.3119 120.53 2.30969C120.543 2.3119 120.556 2.31189 120.568 2.31189ZM120.508 2.30969C120.495 2.30969 120.482 2.30969 120.469 2.30969C120.481 2.30969 120.495 2.30969 120.508 2.30969ZM120.448 2.30969C120.435 2.30969 120.422 2.30747 120.408 2.30747C120.423 2.30747 120.433 2.30969 120.448 2.30969ZM120.387 2.30747C120.373 2.30747 120.363 2.30747 120.351 2.30747C120.363 2.30747 120.374 2.30747 120.387 2.30747ZM120.326 2.30747C120.313 2.30747 120.301 2.30748 120.288 2.30527C120.3 2.30748 120.313 2.30747 120.326 2.30747ZM120.266 2.30527C120.25 2.30527 120.234 2.30527 120.22 2.30527C120.237 2.30527 120.249 2.30527 120.266 2.30527ZM120.206 2.30527C120.186 2.30527 120.167 2.30526 120.145 2.30305C120.164 2.30526 120.187 2.30527 120.206 2.30527ZM120.145 2.30305C120.092 2.30305 120.036 2.30306 119.983 2.30085C120.038 2.30306 120.091 2.30305 120.145 2.30305ZM117.589 2.29201C117.729 2.29201 117.869 2.28981 118.009 2.28981C118.025 2.28981 118.041 2.28981 118.057 2.28981C117.9 2.29202 117.746 2.29201 117.589 2.29201Z" fill="#FFF6AF"/>
<path d="M22.2275 62.5943C39.4871 27.2488 75.6798 2.77526 117.188 2.30266C117.321 2.29824 117.453 2.29602 117.588 2.29382C117.745 2.29382 117.899 2.29162 118.056 2.29162C118.067 2.29162 118.077 2.29162 118.089 2.29162C118.203 2.29162 118.317 2.29162 118.432 2.29162C118.947 2.29162 119.465 2.29603 119.983 2.30266C120.036 2.30266 120.091 2.30486 120.144 2.30486C120.166 2.30486 120.185 2.30487 120.205 2.30708C120.21 2.30708 120.213 2.30708 120.219 2.30708C120.233 2.30708 120.249 2.30708 120.265 2.30708C120.272 2.30708 120.28 2.30708 120.288 2.30708C120.3 2.30708 120.312 2.30707 120.325 2.30928C120.332 2.30928 120.342 2.30928 120.35 2.30928C120.362 2.30928 120.372 2.30928 120.386 2.30928C120.393 2.30928 120.401 2.30928 120.407 2.30928C120.421 2.30928 120.435 2.30929 120.447 2.3115C120.455 2.3115 120.46 2.3115 120.468 2.3115C120.481 2.3115 120.494 2.3115 120.507 2.3115C120.515 2.3115 120.523 2.3115 120.529 2.3115C120.542 2.3115 120.554 2.31149 120.567 2.3137C120.575 2.3137 120.584 2.3137 120.591 2.3137C120.603 2.3137 120.617 2.3137 120.63 2.3137C120.634 2.3137 120.642 2.3137 120.648 2.3137C120.663 2.3137 120.678 2.3159 120.692 2.3159C120.7 2.3159 120.701 2.3159 120.708 2.3159C120.724 2.3159 120.738 2.3159 120.754 2.3159C120.759 2.3159 120.763 2.3159 120.768 2.3159C120.784 2.31811 120.801 2.31812 120.816 2.31812C120.819 2.31812 120.827 2.31812 120.829 2.31812C120.849 2.31812 120.863 2.31811 120.884 2.32032H120.888C120.906 2.32032 120.925 2.32032 120.943 2.32032C120.945 2.32032 120.948 2.32032 120.951 2.32032C121.074 2.32474 121.195 2.32695 121.318 2.33136C121.32 2.33136 121.322 2.33136 121.324 2.33136C121.342 2.33136 121.362 2.33136 121.38 2.33136C121.383 2.33136 121.383 2.33136 121.385 2.33136C121.405 2.33357 121.42 2.33358 121.44 2.33358C121.443 2.33358 121.446 2.33358 121.449 2.33358C121.464 2.33358 121.485 2.33578 121.501 2.33578C121.503 2.33578 121.508 2.33578 121.51 2.33578C121.526 2.33578 121.548 2.33578 121.563 2.33799C121.568 2.33799 121.566 2.33799 121.57 2.33799C121.59 2.33799 121.608 2.338 121.628 2.34021C121.63 2.34021 121.627 2.338 121.63 2.34021C121.65 2.34021 121.668 2.34021 121.689 2.34021H121.691C121.712 2.34241 121.731 2.34241 121.751 2.34241C121.753 2.34241 121.75 2.34241 121.753 2.34241C125.105 2.4462 128.418 2.70458 131.689 3.11093H131.691C131.711 3.11313 131.728 3.11536 131.748 3.11757C131.77 3.11978 131.788 3.12198 131.808 3.12419L131.812 3.12639C131.85 3.13081 131.887 3.13523 131.929 3.13965C131.949 3.14407 131.967 3.14405 131.987 3.14847C131.989 3.14847 131.989 3.14847 131.991 3.14847C132.011 3.15068 132.027 3.15289 132.046 3.15509C132.049 3.15509 132.049 3.15509 132.051 3.15509C132.172 3.17055 132.292 3.18602 132.411 3.20148C132.431 3.2059 132.451 3.2081 132.47 3.2103C132.49 3.21251 132.506 3.21474 132.526 3.21695C132.528 3.21695 132.537 3.21915 132.539 3.21915C132.557 3.22136 132.57 3.22356 132.587 3.22577C132.592 3.22577 132.592 3.22578 132.599 3.22799C132.612 3.22799 132.627 3.23018 132.643 3.23239C132.649 3.2346 132.654 3.23461 132.66 3.23461C132.674 3.23682 132.687 3.23902 132.702 3.24123C132.707 3.24123 132.713 3.24343 132.718 3.24343C132.735 3.24564 132.746 3.24785 132.76 3.24785C132.764 3.25006 132.773 3.25007 132.777 3.25007C132.793 3.25228 132.806 3.25449 132.822 3.25669C132.826 3.25669 132.833 3.25889 132.837 3.25889C132.848 3.2611 132.864 3.26331 132.877 3.26551C132.883 3.26551 132.89 3.26553 132.897 3.26773C132.91 3.26994 132.921 3.26995 132.934 3.27216C132.943 3.27436 132.947 3.27436 132.956 3.27436C132.97 3.27657 132.978 3.27877 132.992 3.28098C132.998 3.28098 133.007 3.2832 133.016 3.2832C133.027 3.28541 133.042 3.2876 133.053 3.2876C133.058 3.28981 133.069 3.28981 133.073 3.29202C133.089 3.29423 133.102 3.29423 133.117 3.29644C133.122 3.29865 133.126 3.29864 133.131 3.29864C133.148 3.30085 133.164 3.30307 133.179 3.30528C133.184 3.30528 133.19 3.30748 133.193 3.30748C133.212 3.30969 133.228 3.31191 133.248 3.31633C133.252 3.31633 133.254 3.31633 133.259 3.31633C133.276 3.31853 133.29 3.32074 133.307 3.32294C133.312 3.32515 133.321 3.32516 133.327 3.32737C133.338 3.32737 133.352 3.32956 133.365 3.33177C133.374 3.33397 133.385 3.33398 133.394 3.33619C133.405 3.33619 133.411 3.33841 133.42 3.33841C133.429 3.34062 133.442 3.34281 133.451 3.34281C133.462 3.34502 133.471 3.34723 133.48 3.34723C133.489 3.34944 133.497 3.34944 133.508 3.35165C133.517 3.35386 133.528 3.35386 133.537 3.35607C133.546 3.35828 133.557 3.35828 133.564 3.36049C133.575 3.36049 133.586 3.36268 133.597 3.36489C133.606 3.36489 133.617 3.3671 133.625 3.36931C133.636 3.36931 133.641 3.37154 133.652 3.37154C133.661 3.37374 133.674 3.37593 133.683 3.37593C133.694 3.37814 133.701 3.38036 133.712 3.38036C133.72 3.38256 133.731 3.38478 133.742 3.38478C133.751 3.38699 133.76 3.38699 133.771 3.3892C133.78 3.39141 133.789 3.39141 133.798 3.39362C133.809 3.39583 133.815 3.39581 133.826 3.39802C133.835 3.39802 133.851 3.40023 133.859 3.40244C133.864 3.40244 133.871 3.40466 133.877 3.40466C133.89 3.40687 133.904 3.40907 133.917 3.41128C133.921 3.41128 133.926 3.41127 133.932 3.41348C133.946 3.41569 133.961 3.41789 133.974 3.4201C133.977 3.4201 133.979 3.4201 133.981 3.4201C134.069 3.43335 134.164 3.44662 134.253 3.45987C134.255 3.45987 134.255 3.45987 134.257 3.45987C134.295 3.4665 134.332 3.47091 134.37 3.47754C134.387 3.47974 134.405 3.48194 134.423 3.48635H134.427C134.443 3.48856 134.46 3.49079 134.478 3.493C134.48 3.493 134.482 3.4952 134.484 3.4952C134.502 3.49741 134.515 3.49961 134.535 3.50182C134.537 3.50182 134.535 3.50182 134.537 3.50182C134.557 3.50623 134.571 3.50845 134.59 3.51066C134.593 3.51066 134.593 3.51066 134.595 3.51066C134.613 3.51508 134.632 3.51727 134.648 3.51948C134.668 3.52169 134.685 3.52612 134.703 3.52832H134.705C168.156 8.65182 196.496 29.2805 212.174 57.844C193.974 32.4253 165.656 14.7514 133.111 10.6902C132.422 14.6233 125.925 17.7085 118.008 17.7085C110.232 17.7085 103.826 14.7316 102.949 10.8978C83.757 13.5766 66.0105 21.0476 51.0019 32.0675C51.0289 32.0167 51.056 31.9681 51.0821 31.9174V31.9196C50.9251 32.0631 50.769 32.2089 50.613 32.3546C39.4407 40.6295 29.7997 50.8831 22.2275 62.5943Z" fill="#FCD199"/>
<path d="M133.892 132.81C133.925 132.795 133.959 132.782 133.993 132.767C133.959 132.782 133.924 132.795 133.892 132.81ZM134.021 132.755C134.046 132.745 134.068 132.736 134.093 132.726C134.066 132.736 134.047 132.745 134.021 132.755ZM134.125 132.711C134.149 132.701 134.176 132.691 134.198 132.68C134.175 132.691 134.15 132.701 134.125 132.711ZM134.225 132.67C134.259 132.655 134.288 132.642 134.322 132.629C134.291 132.642 134.257 132.657 134.225 132.67ZM134.326 132.627C134.361 132.613 134.395 132.598 134.432 132.583C134.397 132.598 134.361 132.613 134.326 132.627ZM134.438 132.58C134.469 132.567 134.502 132.554 134.533 132.539C134.501 132.554 134.47 132.567 134.438 132.58ZM134.552 132.532C134.583 132.52 134.61 132.509 134.64 132.495C134.611 132.507 134.582 132.52 134.552 132.532ZM134.655 132.488C134.689 132.475 134.721 132.462 134.755 132.447C134.723 132.462 134.689 132.475 134.655 132.488ZM134.758 132.445C134.831 132.415 134.899 132.385 134.971 132.354C134.9 132.385 134.83 132.415 134.758 132.445ZM134.98 132.351C135.012 132.338 135.044 132.324 135.076 132.31C135.043 132.324 135.013 132.338 134.98 132.351ZM135.087 132.306C135.229 132.246 135.37 132.186 135.512 132.125C135.37 132.186 135.229 132.246 135.087 132.306ZM135.515 132.122C135.838 131.984 136.157 131.848 136.48 131.71C136.158 131.848 135.837 131.986 135.515 132.122ZM136.484 131.707C136.627 131.645 136.766 131.585 136.909 131.523C136.768 131.584 136.625 131.647 136.484 131.707ZM136.913 131.52C137.054 131.46 137.195 131.399 137.336 131.337C137.195 131.399 137.054 131.46 136.913 131.52ZM137.345 131.333C137.483 131.272 137.625 131.209 137.765 131.149C137.624 131.211 137.486 131.271 137.345 131.333ZM137.775 131.145C137.804 131.131 137.838 131.117 137.869 131.102C137.839 131.117 137.804 131.131 137.775 131.145ZM137.878 131.099C137.98 131.054 138.088 131.007 138.19 130.961C138.088 131.007 137.982 131.054 137.878 131.099ZM138.204 130.955C138.236 130.941 138.261 130.93 138.292 130.916C138.264 130.929 138.233 130.942 138.204 130.955ZM138.309 130.908C138.343 130.894 138.374 130.88 138.408 130.866C138.374 130.88 138.345 130.894 138.309 130.908ZM138.408 130.864C138.477 130.833 138.547 130.803 138.616 130.773C138.547 130.803 138.477 130.833 138.408 130.864ZM138.634 130.764C138.662 130.753 138.691 130.739 138.717 130.728C138.691 130.739 138.662 130.753 138.634 130.764ZM138.737 130.719C138.766 130.706 138.792 130.694 138.822 130.681C138.795 130.694 138.764 130.706 138.737 130.719ZM138.841 130.672C138.908 130.643 138.973 130.613 139.039 130.584C138.973 130.613 138.908 130.643 138.841 130.672ZM139.07 130.571C139.093 130.559 139.115 130.549 139.14 130.538C139.117 130.549 139.092 130.56 139.07 130.571ZM139.171 130.525C139.193 130.515 139.217 130.505 139.239 130.494C139.215 130.505 139.195 130.513 139.171 130.525ZM139.271 130.48C139.297 130.468 139.324 130.456 139.35 130.444C139.325 130.455 139.296 130.469 139.271 130.48ZM139.369 130.436C139.4 130.421 139.437 130.405 139.468 130.391C139.435 130.406 139.402 130.421 139.369 130.436ZM139.493 130.381C139.518 130.369 139.54 130.359 139.565 130.349C139.541 130.359 139.516 130.371 139.493 130.381ZM139.601 130.331C139.62 130.322 139.639 130.314 139.66 130.305C139.639 130.314 139.62 130.322 139.601 130.331ZM139.704 130.286C139.722 130.278 139.738 130.27 139.757 130.262C139.738 130.27 139.722 130.277 139.704 130.286ZM139.801 130.242C139.816 130.234 139.833 130.227 139.849 130.22C139.832 130.227 139.817 130.234 139.801 130.242ZM139.943 130.177C139.958 130.17 139.971 130.165 139.984 130.158C139.973 130.164 139.957 130.171 139.943 130.177ZM140.04 130.133C140.052 130.129 140.067 130.121 140.077 130.115C140.065 130.121 140.052 130.127 140.04 130.133ZM140.136 130.089C140.147 130.085 140.159 130.079 140.169 130.074C140.159 130.079 140.147 130.085 140.136 130.089ZM140.233 130.045C140.236 130.045 140.238 130.044 140.24 130.042C140.238 130.044 140.236 130.045 140.233 130.045ZM140.485 129.93C140.488 129.929 140.491 129.929 140.495 129.926C140.492 129.928 140.488 129.929 140.485 129.93ZM140.576 129.889L140.579 129.888L140.576 129.889Z" fill="#5B6D54"/>
<path d="M65.3545 147.805C57.1644 147.805 49.1889 147.065 41.515 145.552C37.7283 144.616 34.0185 143.49 30.4026 142.151C23.7367 139.683 18.9624 133.77 17.8786 126.745C16.9612 120.793 16.5339 114.682 16.6425 108.45C17.1656 78.4412 30.1809 51.4563 50.6138 32.3536C50.7436 32.2563 50.8725 32.1611 51.0025 32.0659C43.2575 46.5115 38.7306 62.9301 38.4267 80.3697C38.4211 80.6978 38.4164 81.026 38.4142 81.3542C38.2594 99.6507 51.2669 115.37 69.2451 118.782C76.6692 120.19 84.3681 120.876 92.2701 120.876C114.092 120.876 137.463 115.636 160.828 105.874C177.411 98.9437 192.48 90.3586 205.425 80.3677C190.224 100.666 167.633 117.542 140.581 129.887L140.577 129.889C140.551 129.901 140.524 129.913 140.496 129.925C140.492 129.927 140.49 129.929 140.486 129.929C140.403 129.968 140.324 130.004 140.241 130.041C140.239 130.043 140.237 130.045 140.235 130.045C140.212 130.055 140.192 130.063 140.172 130.073C140.16 130.077 140.147 130.083 140.137 130.087C140.117 130.098 140.099 130.106 140.079 130.116C140.068 130.12 140.052 130.128 140.04 130.132C140.02 130.14 140.006 130.148 139.985 130.156C139.971 130.164 139.959 130.168 139.945 130.177C139.912 130.189 139.882 130.205 139.85 130.219C139.833 130.225 139.817 130.233 139.801 130.241C139.787 130.247 139.771 130.254 139.756 130.262C139.738 130.27 139.722 130.276 139.706 130.284C139.692 130.29 139.675 130.296 139.661 130.304C139.641 130.312 139.621 130.322 139.602 130.33C139.59 130.337 139.578 130.341 139.566 130.349C139.54 130.359 139.517 130.369 139.493 130.379C139.483 130.383 139.477 130.387 139.469 130.391C139.438 130.403 139.402 130.42 139.372 130.436C139.363 130.438 139.359 130.44 139.351 130.442C139.325 130.456 139.299 130.466 139.272 130.478C139.262 130.482 139.25 130.489 139.24 130.495C139.218 130.505 139.195 130.515 139.171 130.525C139.161 130.529 139.151 130.533 139.141 130.537C139.116 130.547 139.094 130.557 139.07 130.57C139.062 130.574 139.049 130.578 139.039 130.584C138.972 130.612 138.908 130.642 138.843 130.671C138.835 130.675 138.829 130.677 138.823 130.681C138.794 130.693 138.768 130.705 138.737 130.717C138.731 130.721 138.725 130.723 138.719 130.726C138.691 130.738 138.663 130.752 138.636 130.764C138.628 130.766 138.624 130.768 138.618 130.772C138.549 130.802 138.478 130.833 138.409 130.863H138.407C138.375 130.879 138.344 130.892 138.31 130.908C138.306 130.91 138.298 130.912 138.292 130.916C138.261 130.928 138.237 130.94 138.205 130.954C138.199 130.956 138.197 130.958 138.191 130.961C138.089 131.005 137.982 131.054 137.879 131.098C137.875 131.1 137.875 131.1 137.87 131.102C137.838 131.114 137.806 131.131 137.775 131.143C137.771 131.145 137.769 131.147 137.765 131.147C137.625 131.21 137.484 131.27 137.346 131.331C137.344 131.333 137.338 131.335 137.338 131.337C137.196 131.398 137.056 131.459 136.914 131.52C136.912 131.522 136.912 131.522 136.91 131.522C136.766 131.584 136.629 131.643 136.485 131.706C136.483 131.708 136.481 131.708 136.481 131.708C136.159 131.848 135.839 131.984 135.517 132.121L135.513 132.123C135.371 132.184 135.229 132.245 135.087 132.306C135.083 132.306 135.081 132.308 135.077 132.31C135.045 132.324 135.012 132.336 134.98 132.35C134.978 132.352 134.974 132.354 134.972 132.354C134.899 132.385 134.832 132.413 134.759 132.443C134.759 132.445 134.759 132.445 134.755 132.445C134.722 132.46 134.69 132.474 134.656 132.488C134.652 132.49 134.648 132.492 134.641 132.494C134.611 132.508 134.585 132.518 134.552 132.53C134.546 132.532 134.54 132.537 134.534 132.539C134.504 132.553 134.469 132.567 134.439 132.579C134.437 132.579 134.435 132.581 134.433 132.581C134.396 132.597 134.362 132.611 134.327 132.626C134.323 132.628 134.323 132.628 134.323 132.628C134.289 132.642 134.261 132.654 134.226 132.668C134.216 132.672 134.208 132.676 134.2 132.678C134.178 132.688 134.149 132.701 134.127 132.711C134.117 132.715 134.105 132.719 134.095 132.725C134.068 132.735 134.046 132.743 134.022 132.755C134.011 132.757 134.001 132.763 133.993 132.765C133.959 132.782 133.926 132.794 133.892 132.808C110.531 142.57 87.1727 147.805 65.3545 147.805Z" fill="#BF6700"/>
<path d="M50.6133 32.3524C50.7691 32.2065 50.9252 32.0626 51.0823 31.9187V31.9167C51.0561 31.9674 51.0292 32.016 51.002 32.0667C50.8721 32.1619 50.7432 32.2572 50.6133 32.3524Z" fill="#D19982"/>
<path d="M65.9353 43.1608C64.8279 46.6426 62.9149 49.1908 61.6967 48.8042C60.4786 48.4155 60.3883 45.2322 61.4955 41.7485C62.6018 38.2667 64.516 35.7184 65.7342 36.1051C66.8755 36.4697 67.0406 39.2944 66.1104 42.5778L65.9353 43.1608Z" fill="#FCE69F"/>
<path d="M84.0127 45.4039C83.3879 49.0061 81.8375 51.7893 80.5775 51.5706C79.3187 51.3519 78.7967 48.209 79.4215 44.6088C80.0475 41.0066 81.5979 38.2234 82.8567 38.4421C84.0375 38.6469 84.5832 41.424 84.1075 44.8036L84.0127 45.4039Z" fill="#FCE69F"/>
<path d="M107.351 44.6805C107.86 48.3004 107.238 51.4253 105.971 51.6022C104.705 51.7811 103.246 48.9484 102.737 45.3286C102.228 41.7107 102.852 38.5858 104.117 38.4088C105.303 38.2419 106.675 40.7167 107.257 44.0802L107.351 44.6805Z" fill="#FCE69F"/>
<path d="M126.867 37.1966C128.801 40.2973 129.498 43.4061 128.415 44.0825C127.331 44.7589 124.846 42.762 122.914 39.6613C120.978 36.5606 120.281 33.4518 121.365 32.7754C122.381 32.1415 124.639 33.8488 126.535 36.6862L126.867 37.1966Z" fill="#FCE69F"/>
<path d="M141.834 24.785C144.427 27.3631 145.816 30.2302 144.913 31.1371C144.01 32.0418 141.139 30.6658 138.548 28.0877C135.958 25.5096 134.567 22.6425 135.47 21.7357C136.316 20.8875 138.902 22.0331 141.399 24.3619L141.834 24.785Z" fill="#FCE69F"/>
<path d="M68.3421 102.263C67.1256 102.263 66.1426 101.278 66.1426 100.063C66.1426 98.8469 67.1256 97.8623 68.3421 97.8623C69.5571 97.8623 70.5416 98.8469 70.5416 100.063C70.5416 101.278 69.5571 102.263 68.3421 102.263Z" fill="#BF6700"/>
<path d="M103.83 81.3606C102.615 81.3606 101.63 80.3752 101.63 79.1605C101.63 77.944 102.615 76.9586 103.83 76.9586C105.045 76.9586 106.03 77.944 106.03 79.1605C106.03 80.3752 105.045 81.3606 103.83 81.3606Z" fill="#BF6700"/>
<path d="M111.102 104.259C109.885 104.259 108.901 103.273 108.901 102.06C108.901 100.844 109.885 99.8589 111.102 99.8589C112.316 99.8589 113.301 100.844 113.301 102.06C113.301 103.273 112.316 104.259 111.102 104.259Z" fill="#E99335"/>
<path d="M132.334 77.3252C131.118 77.3252 130.135 76.3401 130.135 75.1242C130.135 73.91 131.118 72.9248 132.334 72.9248C133.55 72.9248 134.535 73.91 134.535 75.1242C134.535 76.3401 133.55 77.3252 132.334 77.3252Z" fill="#E99335"/>
<path d="M155.048 95.3326C153.833 95.3326 152.848 94.3471 152.848 93.1337C152.848 91.9168 153.833 90.9331 155.048 90.9331C156.265 90.9331 157.251 91.9168 157.251 93.1337C157.251 94.3471 156.265 95.3326 155.048 95.3326Z" fill="#BF6700"/>
<path d="M157.992 62.04C156.777 62.04 155.792 61.0551 155.792 59.8404C155.792 58.6238 156.777 57.6389 157.992 57.6389C159.208 57.6389 160.191 58.6238 160.191 59.8404C160.191 61.0551 159.208 62.04 157.992 62.04Z" fill="#BF6700"/>
<path d="M173.807 43.1849C172.593 43.1849 171.606 42.2006 171.606 40.986C171.606 39.7715 172.593 38.7852 173.807 38.7852C175.022 38.7852 176.008 39.7715 176.008 40.986C176.008 42.2006 175.022 43.1849 173.807 43.1849Z" fill="#BF6700"/>
<path d="M68.7822 79.4121C67.5675 79.4121 66.582 78.427 66.582 77.211C66.582 75.9968 67.5675 75.0117 68.7822 75.0117C69.998 75.0117 70.9835 75.9968 70.9835 77.211C70.9835 78.427 69.998 79.4121 68.7822 79.4121Z" fill="#E99335"/>
<path d="M195.39 63.9086C194.175 63.9086 193.19 62.9242 193.19 61.7094C193.19 60.4947 194.175 59.5084 195.39 59.5084C196.606 59.5084 197.591 60.4947 197.591 61.7094C197.591 62.9242 196.606 63.9086 195.39 63.9086Z" fill="#BF6700"/>
<path d="M181.123 87.9374C179.908 87.9374 178.922 86.951 178.922 85.7363C178.922 84.5216 179.908 83.537 181.123 83.537C182.338 83.537 183.322 84.5216 183.322 85.7363C183.322 86.951 182.338 87.9374 181.123 87.9374Z" fill="#E99335"/>
<path d="M118.4 4.5795C61.5416 4.5795 14.774 50.3279 13.7798 107.345C13.6745 113.394 14.0893 119.469 15.0137 125.402C15.9673 131.526 20.1393 136.662 25.9036 138.807C55.8225 149.936 93.8596 147.055 133.009 130.696C166.251 116.805 192.063 96.933 207.649 73.2243C211.21 67.8123 211.363 60.7558 208.041 55.2503C189.263 24.1135 156.391 5.1759 120.108 4.59286C119.539 4.58395 118.967 4.5795 118.4 4.5795ZM65.3011 150.102C50.5794 150.102 36.834 147.758 24.3067 143.098C16.9922 140.377 11.6977 133.865 10.4894 126.105C9.52537 119.916 9.09232 113.576 9.20225 107.265C9.70829 78.2447 21.562 51.0778 42.58 30.7716C63.5925 10.4722 91.1521 -0.467545 120.182 0.0153503C138.995 0.317993 157.475 5.49411 173.626 14.9829C189.308 24.198 202.564 37.3052 211.962 52.8848C216.188 59.8923 215.996 68.8626 211.477 75.7389C195.385 100.213 168.862 120.677 134.774 134.919C115.027 143.172 95.6145 148.117 77.0755 149.618C73.0866 149.941 69.16 150.102 65.3011 150.102Z" fill="#6D184E"/>
<path d="M184.116 217.603C182.798 224.718 175.961 229.414 168.846 228.095C161.733 226.775 157.035 219.939 158.356 212.824C159.13 208.645 160.806 209.594 163.539 210.543C165.457 211.21 167.894 211.875 170.907 210.769C179.507 207.611 185.436 210.49 184.116 217.603Z" fill="#FCAF15"/>
<path d="M168.823 228.091H168.821H168.823ZM177.587 219.044C177.907 218.246 178.153 217.406 178.317 216.528C178.926 213.244 177.975 210.877 175.945 209.575C176.395 209.532 176.828 209.512 177.248 209.512C182.168 209.512 185.045 212.402 184.13 217.524C184.422 215.888 184.316 214.487 183.891 213.324C182.401 215.616 180.162 217.724 177.587 219.044ZM184.121 217.578C184.121 217.575 184.123 217.572 184.123 217.569C184.123 217.572 184.121 217.574 184.121 217.578ZM184.126 217.553C184.126 217.544 184.128 217.536 184.13 217.527C184.128 217.536 184.126 217.544 184.126 217.553Z" fill="#FED78A"/>
<path d="M168.846 228.096C168.839 228.093 168.832 228.092 168.823 228.091C168.83 228.092 168.839 228.093 168.846 228.096ZM183.28 220.376C183.653 219.503 183.936 218.575 184.116 217.604C184.118 217.596 184.12 217.587 184.122 217.578C184.12 217.587 184.118 217.595 184.116 217.604C183.936 218.575 183.653 219.503 183.28 220.376Z" fill="#D18126"/>
<path d="M158.357 212.824C158.357 212.82 158.357 212.815 158.359 212.811C158.357 212.815 158.357 212.82 158.357 212.824Z" fill="#6D184E"/>
<path d="M168.823 228.091C161.722 226.761 157.036 219.931 158.355 212.825C158.355 212.821 158.357 212.817 158.357 212.812C158.761 210.649 159.407 209.869 160.318 209.748C161.635 214.385 165.232 219.349 170.294 220.288C170.898 220.4 171.5 220.454 172.103 220.454C173.999 220.454 175.868 219.923 177.586 219.044C175.67 223.799 171.113 226.997 166.01 227.218C166.895 227.603 167.832 227.905 168.823 228.091ZM184.122 217.569C184.123 217.564 184.125 217.558 184.125 217.553C184.125 217.558 184.123 217.564 184.122 217.569ZM184.13 217.527C184.13 217.527 184.13 217.526 184.13 217.524C184.13 217.526 184.13 217.527 184.13 217.527Z" fill="#D18126"/>
<path d="M171.333 228.317C176.537 228.283 181.245 225.138 183.28 220.375C181.245 225.14 176.537 228.284 171.333 228.317Z" fill="#D3B392"/>
<path d="M171.251 228.317C170.459 228.317 169.653 228.245 168.847 228.096C168.838 228.093 168.831 228.092 168.824 228.091H168.822C167.834 227.904 166.896 227.603 166.01 227.217C171.115 226.997 175.67 223.799 177.588 219.044C180.162 217.724 182.402 215.616 183.892 213.324C184.316 214.487 184.424 215.888 184.132 217.524C184.132 217.526 184.132 217.527 184.132 217.527C184.128 217.536 184.128 217.544 184.126 217.553C184.125 217.558 184.125 217.564 184.123 217.568C184.123 217.572 184.121 217.575 184.121 217.577C184.12 217.587 184.118 217.596 184.116 217.604C183.937 218.575 183.652 219.503 183.281 220.375C181.245 225.138 176.537 228.283 171.334 228.317C171.305 228.317 171.279 228.317 171.251 228.317Z" fill="#D29D78"/>
<path d="M160.909 212.072C160.827 212.289 160.715 212.654 160.606 213.243C160.08 216.083 160.69 218.956 162.324 221.337C163.96 223.717 166.425 225.317 169.263 225.845C172.104 226.37 174.977 225.761 177.358 224.125C179.739 222.491 181.338 220.025 181.865 217.187C182.123 215.795 182.16 213.907 180.871 212.819C179.206 211.414 175.691 211.452 171.695 212.919C167.592 214.426 164.34 213.263 162.187 212.494C161.781 212.348 161.263 212.163 160.909 212.072ZM171.269 230.609C170.326 230.609 169.375 230.522 168.427 230.346C164.388 229.596 160.879 227.318 158.551 223.929C156.223 220.542 155.353 216.45 156.104 212.408C156.396 210.833 156.943 208.904 158.6 207.95C160.317 206.961 162.129 207.611 163.73 208.183C165.618 208.858 167.571 209.556 170.117 208.621C175.82 206.526 180.815 206.782 183.824 209.321C186.142 211.277 187.045 214.368 186.366 218.022C185.617 222.064 183.338 225.571 179.951 227.899C177.356 229.681 174.349 230.609 171.269 230.609Z" fill="#6D184E"/>
<path d="M201.153 127.374C202.077 127.798 203.158 127.69 204.036 127.176C207.658 125.048 219.227 118.015 221.175 113.868C223.347 109.242 194.614 124.37 201.153 127.374Z" fill="#E5525F"/>
<path d="M127.269 289.947C69.3826 289.947 22.457 284.468 22.457 277.709C22.457 270.951 69.3826 265.471 127.269 265.471C185.152 265.471 232.079 270.951 232.079 277.709C232.079 284.468 185.152 289.947 127.269 289.947Z" fill="#F2A40C"/>
</svg>
